<svg width="30" height="30" viewBox="0 0 30 30" fill="none" xmlns="http://www.w3.org/2000/svg">
<circle cx="15" cy="15" r="15" fill="#A51E6F"/>
<path d="M15 11.7692C14.361 11.7692 13.7364 11.9587 13.2051 12.3137C12.6738 12.6687 12.2597 13.1733 12.0152 13.7636C11.7706 14.354 11.7066 15.0036 11.8313 15.6303C11.956 16.257 12.2637 16.8327 12.7155 17.2845C13.1673 17.7363 13.743 18.044 14.3697 18.1687C14.9964 18.2934 15.646 18.2294 16.2364 17.9848C16.8267 17.7403 17.3313 17.3262 17.6863 16.7949C18.0413 16.2636 18.2308 15.639 18.2308 15C18.2299 14.1434 17.8892 13.3222 17.2835 12.7165C16.6778 12.1108 15.8566 11.7701 15 11.7692ZM15 17.1538C14.574 17.1538 14.1576 17.0275 13.8034 16.7909C13.4492 16.5542 13.1731 16.2178 13.0101 15.8242C12.8471 15.4307 12.8044 14.9976 12.8875 14.5798C12.9706 14.162 13.1758 13.7782 13.477 13.477C13.7782 13.1758 14.162 12.9706 14.5798 12.8875C14.9976 12.8044 15.4307 12.8471 15.8242 13.0101C16.2178 13.1731 16.5542 13.4492 16.7909 13.8034C17.0275 14.1576 17.1538 14.574 17.1538 15C17.1538 15.5712 16.9269 16.1191 16.523 16.523C16.1191 16.9269 15.5712 17.1538 15 17.1538ZM18.2308 8H11.7692C10.7699 8.00107 9.8118 8.39853 9.10516 9.10516C8.39853 9.8118 8.00107 10.7699 8 11.7692V18.2308C8.00107 19.2301 8.39853 20.1882 9.10516 20.8948C9.8118 21.6015 10.7699 21.9989 11.7692 22H18.2308C19.2301 21.9989 20.1882 21.6015 20.8948 20.8948C21.6015 20.1882 21.9989 19.2301 22 18.2308V11.7692C21.9989 10.7699 21.6015 9.8118 20.8948 9.10516C20.1882 8.39853 19.2301 8.00107 18.2308 8ZM20.9231 18.2308C20.9231 18.9448 20.6394 19.6296 20.1345 20.1345C19.6296 20.6394 18.9448 20.9231 18.2308 20.9231H11.7692C11.0552 20.9231 10.3704 20.6394 9.86548 20.1345C9.36058 19.6296 9.07692 18.9448 9.07692 18.2308V11.7692C9.07692 11.0552 9.36058 10.3704 9.86548 9.86548C10.3704 9.36058 11.0552 9.07692 11.7692 9.07692H18.2308C18.9448 9.07692 19.6296 9.36058 20.1345 9.86548C20.6394 10.3704 20.9231 11.0552 20.9231 11.7692V18.2308ZM19.3077 11.5C19.3077 11.6597 19.2603 11.8159 19.1716 11.9487C19.0828 12.0816 18.9567 12.1851 18.8091 12.2462C18.6615 12.3073 18.4991 12.3233 18.3424 12.2922C18.1858 12.261 18.0418 12.1841 17.9289 12.0711C17.8159 11.9582 17.739 11.8143 17.7078 11.6576C17.6767 11.5009 17.6927 11.3385 17.7538 11.1909C17.8149 11.0433 17.9184 10.9172 18.0513 10.8284C18.1841 10.7397 18.3403 10.6923 18.5 10.6923C18.7142 10.6923 18.9197 10.7774 19.0711 10.9289C19.2226 11.0803 19.3077 11.2858 19.3077 11.5Z" fill="white"/>
</svg>
