<svg width="30" height="30" viewBox="0 0 30 30" fill="none" xmlns="http://www.w3.org/2000/svg">
<circle cx="15" cy="15" r="15" fill="#1C8161"/>
<path d="M8.76837 10H21.2316C22.4074 10 23 10.5408 23 11.6408V19.3592C23 20.45 22.4074 21 21.2316 21H8.76837C7.59259 21 7 20.45 7 19.3592V11.6408C7 10.5408 7.59259 10 8.76837 10ZM14.9953 17.8833L21.3351 12.8142C21.5608 12.6308 21.7396 12.2092 21.4574 11.8333C21.1846 11.4575 20.6861 11.4483 20.3568 11.6775L14.9953 15.2158L9.64315 11.6775C9.31393 11.4483 8.8154 11.4575 8.54262 11.8333C8.26044 12.2092 8.43915 12.6308 8.6649 12.8142L14.9953 17.8833Z" fill="white"/>
</svg>
