<svg width="30" height="30" viewBox="0 0 30 30" fill="none" xmlns="http://www.w3.org/2000/svg">
<circle cx="15" cy="15" r="15" fill="#1C8161"/>
<path d="M16.419 8.97497C16.438 8.9039 16.4708 8.83727 16.5156 8.77889C16.5603 8.72051 16.6162 8.67152 16.6799 8.63473C16.7436 8.59794 16.8139 8.57406 16.8869 8.56445C16.9598 8.55485 17.0339 8.55971 17.105 8.57876C18.1431 8.84963 19.0903 9.39234 19.849 10.151C20.6076 10.9097 21.1503 11.8569 21.4212 12.895C21.4403 12.9661 21.4451 13.0402 21.4355 13.1131C21.4259 13.1861 21.402 13.2564 21.3652 13.3201C21.3284 13.3838 21.2795 13.4396 21.2211 13.4844C21.1627 13.5292 21.0961 13.562 21.025 13.581C20.9777 13.5934 20.929 13.5998 20.8801 13.5999C20.7568 13.6 20.6369 13.5593 20.5391 13.4842C20.4412 13.4092 20.3709 13.3039 20.339 13.1848C20.1182 12.3372 19.6753 11.5638 19.056 10.9444C18.4367 10.325 17.6634 9.88195 16.8159 9.66097C16.7447 9.64204 16.678 9.60927 16.6196 9.56453C16.5611 9.5198 16.5121 9.46397 16.4752 9.40026C16.4383 9.33654 16.4144 9.26619 16.4047 9.19321C16.3951 9.12024 16.3999 9.04607 16.419 8.97497ZM16.2559 11.901C17.2212 12.1586 17.8414 12.7795 18.099 13.7448C18.1309 13.8639 18.2012 13.9692 18.2991 14.0442C18.3969 14.1193 18.5168 14.16 18.6401 14.1599C18.689 14.1598 18.7377 14.1534 18.785 14.141C18.8561 14.122 18.9227 14.0892 18.9811 14.0444C19.0394 13.9996 19.0884 13.9438 19.1252 13.8801C19.162 13.8164 19.1859 13.7461 19.1955 13.6731C19.2051 13.6002 19.2002 13.5261 19.1812 13.455C18.8228 12.1138 17.8862 11.1772 16.545 10.8188C16.4739 10.7998 16.3998 10.795 16.3269 10.8047C16.254 10.8143 16.1837 10.8382 16.12 10.8751C16.0563 10.9119 16.0006 10.9609 15.9558 11.0193C15.9111 11.0777 15.8783 11.1443 15.8593 11.2153C15.8403 11.2864 15.8355 11.3605 15.8452 11.4334C15.8548 11.5063 15.8788 11.5766 15.9156 11.6403C15.9524 11.704 16.0014 11.7598 16.0598 11.8045C16.1182 11.8492 16.1848 11.882 16.2559 11.901ZM21.326 17.4121L18.0283 15.9344L18.0192 15.9302C17.848 15.857 17.6612 15.8276 17.4758 15.8447C17.2904 15.8618 17.1122 15.9249 16.9573 16.0282C16.939 16.0403 16.9215 16.0534 16.9048 16.0674L15.201 17.5199C14.1215 16.9956 13.0071 15.8896 12.4828 14.8242L13.9374 13.0945C13.9514 13.077 13.9647 13.0595 13.9773 13.0406C14.0784 12.8861 14.1398 12.709 14.1559 12.5251C14.172 12.3412 14.1424 12.1561 14.0697 11.9864V11.978L12.5878 8.67466C12.4918 8.45295 12.3265 8.26825 12.1169 8.14815C11.9072 8.02804 11.6643 7.97897 11.4244 8.00826C10.4759 8.13307 9.60524 8.5989 8.97507 9.31874C8.34489 10.0386 7.99829 10.9632 8.00001 11.9199C8.00001 17.478 12.522 22 18.0801 22C19.0368 22.0017 19.9614 21.6551 20.6812 21.0249C21.4011 20.3948 21.8669 19.5241 21.9917 18.5756C22.021 18.3358 21.9721 18.0929 21.8521 17.8833C21.7321 17.6736 21.5476 17.5083 21.326 17.4121Z" fill="white"/>
</svg>
