<svg width="50" height="50" viewBox="0 0 50 50" fill="none" xmlns="http://www.w3.org/2000/svg">
<circle cx="25" cy="25" r="25" fill="#A8AB1F"/>
<path d="M25 15C25.1579 15 25.3059 15.0252 25.4441 15.0757C25.5822 15.1261 25.7105 15.2127 25.8289 15.3355L33.6447 23.3869C33.8816 23.6308 34 23.9204 34 24.2554C34 24.5905 33.8816 24.8804 33.6447 25.1252C33.4079 25.3692 33.1316 25.4912 32.8158 25.4912C32.5 25.4912 32.2237 25.3692 31.9868 25.1252L26.1842 19.1477L26.1842 32.8106C26.1842 33.1562 26.0705 33.4409 25.8432 33.6645C25.6158 33.8882 25.3347 34 25 34C24.6645 34 24.383 33.8829 24.1557 33.6487C23.9283 33.4144 23.815 33.1249 23.8158 32.7801L23.8158 19.1477L18.0132 25.1252C17.7763 25.3692 17.5 25.4912 17.1842 25.4912C16.8684 25.4912 16.5921 25.3692 16.3553 25.1252C16.1184 24.8812 16 24.5913 16 24.2554C16 23.9195 16.1184 23.63 16.3553 23.3868L24.1711 15.3355C24.2895 15.2135 24.4178 15.1269 24.5559 15.0757C24.6941 15.0244 24.8421 14.9992 25 15Z" fill="white"/>
</svg>
