<svg width="30" height="30" viewBox="0 0 30 30" fill="none" xmlns="http://www.w3.org/2000/svg">
<circle cx="15" cy="15" r="15" fill="#C02E51"/>
<path d="M21.7046 11.5612C21.625 11.2592 21.469 10.9838 21.2522 10.7627C21.0355 10.5415 20.7657 10.3823 20.4697 10.301C19.3798 10 15 10 15 10C15 10 10.6202 10 9.53029 10.301C9.23433 10.3823 8.96448 10.5415 8.74775 10.7627C8.53103 10.9838 8.37502 11.2592 8.29536 11.5612C8.09184 12.6955 7.99308 13.8468 8.00038 15C7.99308 16.1532 8.09184 17.3045 8.29536 18.4388C8.37502 18.7408 8.53103 19.0162 8.74775 19.2373C8.96448 19.4585 9.23433 19.6177 9.53029 19.699C10.6202 20 15 20 15 20C15 20 19.3798 20 20.4697 19.699C20.7657 19.6177 21.0355 19.4585 21.2522 19.2373C21.469 19.0162 21.625 18.7408 21.7046 18.4388C21.9082 17.3045 22.0069 16.1532 21.9996 15C22.0069 13.8468 21.9082 12.6955 21.7046 11.5612ZM13.6001 17.1429V12.8571L17.2349 15L13.6001 17.1429Z" fill="white"/>
</svg>
