<svg width="96" height="85" viewBox="0 0 96 85" fill="none" xmlns="http://www.w3.org/2000/svg">
<g filter="url(#filter0_d_12_7)">
<path fill-rule="evenodd" clip-rule="evenodd" d="M43.3266 52.2917C26.7307 53.667 14.5367 58.4346 14.5367 64.1194C14.5367 70.9043 31.7745 76.4058 53.0449 76.4058C74.3154 76.4058 91.5532 70.9045 91.5532 64.1194C91.5532 57.6096 75.5084 52.2917 55.3361 51.9248L62.121 63.6608L62.2127 63.9359C63.8632 69.8959 54.5111 71.6376 50.9348 65.4947L43.3266 52.2917ZM66.1566 24.8767L62.214 22.5846L64.4143 18.7338L62.214 14.7912L66.1566 12.4991V7.91451H70.6495L72.9416 4.06368L76.8842 6.26402L80.8268 4.06368L83.0271 7.91451H87.6117V12.4991L91.5543 14.7912L89.2622 18.7338L91.5543 22.5846L87.6117 24.8767V29.4613H83.0271L80.8268 33.4039L76.8842 31.1118L72.9416 33.4039L70.6495 29.4613H66.1566V24.8767ZM76.8841 8.73962C82.3854 8.73962 86.7866 13.2326 86.7866 18.7339C86.7866 24.2352 82.3854 28.6364 76.8841 28.6364C71.3827 28.6364 66.8898 24.2352 66.8898 18.7339C66.8898 13.2326 71.3827 8.73962 76.8841 8.73962ZM38.3758 26.7104C39.0179 25.8854 39.5677 24.8764 39.6594 23.5928C43.6937 25.3351 50.02 21.7588 50.5704 17.2665C56.2553 18.0915 62.2147 14.6075 62.6733 10.2063C56.0717 -1.25453 39.2013 -2.08005 25.7232 4.70501C22.7891 -0.337669 17.196 2.87101 20.1301 7.91437C7.47689 16.2582 -0.22409 31.2031 6.46881 42.7565C10.5031 44.4988 16.4631 41.0143 18.5717 35.6964C22.6976 37.5304 28.9323 33.7706 29.4827 29.4617C30.6746 30.012 31.8664 30.1038 32.8749 29.9203L52.7717 64.487C55.1554 68.5213 61.1155 67.8791 60.1982 64.487L38.3768 26.7116L38.3758 26.7104ZM20.7715 11.2154C17.9291 17.1753 27.6482 23.3182 26.5481 27.8112C24.6223 35.6964 13.712 34.1375 14.8121 23.9604C15.7288 16.167 21.9639 8.83178 21.9639 8.83178C21.9639 8.83178 21.3218 9.93195 20.772 11.2155L20.7715 11.2154ZM28.198 6.90589C34.7996 7.45624 35.3498 18.917 39.7505 20.2006C47.4521 22.4927 51.6698 12.2237 42.226 8.1895C35.0741 4.98014 25.6301 6.72238 25.6301 6.72238C25.6301 6.72238 26.822 6.72238 28.1973 6.90584L28.198 6.90589Z" fill="white"/>
</g>
<defs>
<filter id="filter0_d_12_7" x="0" y="0.405762" width="95.5543" height="84" filterUnits="userSpaceOnUse" color-interpolation-filters="sRGB">
<feFlood flood-opacity="0" result="BackgroundImageFix"/>
<feColorMatrix in="SourceAlpha" type="matrix" values="0 0 0 0 0 0 0 0 0 0 0 0 0 0 0 0 0 0 127 0" result="hardAlpha"/>
<feOffset dy="4"/>
<feGaussianBlur stdDeviation="2"/>
<feComposite in2="hardAlpha" operator="out"/>
<feColorMatrix type="matrix" values="0 0 0 0 0 0 0 0 0 0 0 0 0 0 0 0 0 0 0.25 0"/>
<feBlend mode="normal" in2="BackgroundImageFix" result="effect1_dropShadow_12_7"/>
<feBlend mode="normal" in="SourceGraphic" in2="effect1_dropShadow_12_7" result="shape"/>
</filter>
</defs>
</svg>
