<svg width="85" height="86" viewBox="0 0 85 86" fill="none" xmlns="http://www.w3.org/2000/svg">
<path d="M55.5402 50.4645L59.0893 52.1098V42.8824L55.5402 44.304V50.4645Z" fill="white"/>
<path d="M50.2269 51.8283L53.7766 50.4072V45.0111L50.2269 46.4393V51.8283Z" fill="white"/>
<path d="M54.6346 17.6162L22.0521 30.7052L30.3672 34.5603L63.0047 21.4838L54.6346 17.6162Z" fill="white"/>
<path d="M1.06494 20.97L12.6846 26.3596C12.7025 24.7428 13.6308 23.0747 14.7709 22.6159C15.9229 22.1518 16.8571 23.0926 16.8571 24.7207C16.8571 25.8548 16.4049 27.0122 15.7403 27.7764L19.8549 29.6813L53.7783 16.0637L53.7771 0L1.06494 20.97ZM22.9933 25.1843C21.8413 25.6479 20.9065 24.7077 20.9065 23.0802C20.9065 21.4587 21.8419 19.7591 22.9933 19.2955C24.1453 18.8314 25.0855 19.771 25.0855 21.3937C25.0861 23.0211 24.1453 24.7208 22.9933 25.1843ZM31.2208 21.8644C30.0628 22.3279 29.134 21.3871 29.134 19.7597C29.134 18.1322 30.0634 16.4397 31.2208 15.975C32.3734 15.5049 33.3076 16.4445 33.3076 18.0719C33.3088 19.7012 32.374 21.3931 31.2208 21.8644ZM39.4436 18.536C38.2915 19.0073 37.3585 18.0665 37.3585 16.4379C37.3585 14.8092 38.2922 13.1107 39.4436 12.6466C40.5962 12.1831 41.531 13.1233 41.531 14.7507C41.531 16.3781 40.5956 18.0719 39.4436 18.536ZM47.6657 15.2161C46.5143 15.6802 45.5795 14.7394 45.5795 13.112C45.5795 11.4905 46.5149 9.79079 47.6657 9.32727C48.8237 8.86312 49.7585 9.80394 49.7585 11.4254C49.7585 13.0535 48.8237 14.7525 47.6657 15.2161Z" fill="white"/>
<path d="M83.9457 13.0917L55.5402 0.0557556V16.095L65.2598 20.5801L83.9457 13.0917Z" fill="white"/>
<path d="M0 22.4255V71.7574L4.43088 73.8162V40.467L25.9072 50.4711V83.8066L29.4568 85.4519V36.0833L18.5476 31.0236L0 22.4255Z" fill="white"/>
<path d="M84.998 14.57L66.3731 22.0345L31.2217 36.1175V85.5273L34.778 84.1743V50.7273L80.5697 32.3559V65.6273L85 63.9383V30.586L84.8359 30.6451L84.9994 30.58L84.998 14.57ZM37.5522 45.8116C36.3943 46.2758 35.4594 45.3361 35.4594 43.7086C35.4594 42.081 36.3949 40.3886 37.5522 39.9251C38.7048 39.455 39.6385 40.3946 39.6385 42.0232C39.6379 43.6507 38.7048 45.345 37.5522 45.8116ZM45.7738 42.4868C44.6212 42.9581 43.6887 42.0173 43.6887 40.3886C43.6887 38.7612 44.6212 37.0627 45.7738 36.5974C46.9264 36.1338 47.86 37.074 47.86 38.7015C47.8594 40.3289 46.9263 42.0232 45.7738 42.4868ZM53.9953 39.1662C52.8439 39.6304 51.9103 38.6895 51.9103 37.0632C51.9103 35.4417 52.8451 33.742 53.9953 33.2779C55.1479 32.8137 56.0881 33.7545 56.0881 35.376C56.0887 37.0035 55.1485 38.7019 53.9953 39.1661V39.1662ZM62.2258 35.8463C61.0667 36.3098 60.1384 35.3696 60.1384 33.7421C60.1384 32.1135 61.0673 30.4222 62.2258 29.9575C63.3773 29.4873 64.3108 30.427 64.3108 32.0556C64.3108 33.683 63.3766 35.3749 62.2258 35.8463ZM70.4462 32.5191C69.2947 32.9892 68.3611 32.0496 68.3611 30.421C68.3611 28.7923 69.2948 27.0938 70.4462 26.6297C71.5988 26.1656 72.5336 27.1064 72.5336 28.7338C72.5342 30.3613 71.5982 32.055 70.4462 32.5191ZM78.6683 29.1992C77.5169 29.6633 76.5833 28.7225 76.5833 27.0951C76.5833 25.4736 77.5169 23.7739 78.6683 23.3104C79.8263 22.8468 80.7611 23.7858 80.7611 25.4085C80.7611 27.0366 79.8262 28.735 78.6683 29.1992Z" fill="white"/>
</svg>
