<svg width="111" height="63" viewBox="0 0 111 63" fill="none" xmlns="http://www.w3.org/2000/svg">
<path d="M0.417374 14.2778C0.446152 14.324 0.475799 14.3719 0.508937 14.4181C0.520273 14.433 0.528122 14.4478 0.537715 14.4635L6.44482 22.6117C6.5826 22.9169 6.77358 23.2029 7.02209 23.4532C7.05174 23.482 7.08575 23.5099 7.11627 23.5369L25.1296 48.3878L17.9197 59.7162C17.3825 60.5612 17.6319 61.68 18.476 62.218C18.776 62.4108 19.1152 62.5032 19.4457 62.5032C20.0448 62.5032 20.6317 62.2067 20.977 61.6634L25.4661 54.6104H93.1184L97.6066 61.6634C97.9519 62.2076 98.5379 62.5032 99.1396 62.5032C99.4718 62.5032 99.8084 62.4116 100.109 62.218C100.953 61.6809 101.203 60.5612 100.665 59.7162L96.7947 53.6348L104.139 46.2907L107.576 51.6928C107.922 52.2369 108.508 52.5326 109.108 52.5326C109.442 52.5326 109.777 52.441 110.079 52.2492C110.924 51.7102 111.172 50.5914 110.634 49.7464L103.343 38.289C103.347 38.2741 103.352 38.2611 103.356 38.2488C103.37 38.2052 103.379 38.1599 103.39 38.1163C103.401 38.071 103.415 38.0274 103.422 37.9811C103.433 37.9288 103.439 37.8774 103.447 37.8233C103.452 37.7849 103.459 37.7457 103.465 37.7073C103.484 37.5207 103.484 37.3332 103.465 37.1457C103.459 37.1074 103.452 37.0681 103.447 37.0298C103.439 36.9757 103.433 36.9251 103.422 36.8719C103.413 36.8257 103.399 36.7821 103.39 36.7368C103.378 36.6932 103.369 36.6478 103.356 36.6042C103.343 36.5606 103.327 36.517 103.31 36.4743C103.294 36.4316 103.281 36.3871 103.262 36.3444C103.245 36.3034 103.225 36.2641 103.207 36.2258C103.186 36.1804 103.166 36.1359 103.143 36.0932C103.122 36.0557 103.1 36.0191 103.078 35.9833C103.051 35.9406 103.028 35.897 103 35.8543C102.974 35.8142 102.943 35.7767 102.915 35.7383C102.889 35.7034 102.866 35.6659 102.838 35.6337C102.781 35.5639 102.722 35.4985 102.659 35.4357L102.649 35.4261C102.646 35.4209 102.642 35.4183 102.638 35.4165C102.575 35.3529 102.509 35.2944 102.442 35.2378C102.408 35.2116 102.372 35.1854 102.338 35.1601C102.298 35.1305 102.26 35.0991 102.219 35.0729C102.178 35.0468 102.137 35.0232 102.095 34.9971C102.057 34.9762 102.02 34.9509 101.981 34.9308C101.94 34.9081 101.897 34.8898 101.852 34.8698C101.812 34.8497 101.771 34.8296 101.729 34.8113C101.688 34.7948 101.646 34.7817 101.605 34.7677C101.559 34.7503 101.513 34.7337 101.466 34.7189C101.426 34.7067 101.386 34.6962 101.344 34.6875C101.297 34.6753 101.248 34.6614 101.197 34.6509C101.152 34.6422 101.108 34.6369 101.061 34.6308C101.015 34.623 100.97 34.6143 100.924 34.6108C100.846 34.6021 100.765 34.5986 100.687 34.5968C100.672 34.5968 100.659 34.596 100.646 34.596L39.3228 34.5933L34.2651 27.6154C34.13 27.3119 33.9372 27.0241 33.6879 26.7739C33.6591 26.7442 33.6251 26.7172 33.5954 26.691L15.0946 1.17044C15.0798 1.15038 15.0649 1.13381 15.0484 1.11376C15.0196 1.07364 14.9873 1.03353 14.9542 0.993417C14.9202 0.955047 14.887 0.917553 14.8513 0.880926C14.8347 0.863486 14.8199 0.846043 14.8042 0.828602C14.7894 0.814649 14.7763 0.802441 14.7615 0.791105C14.7231 0.753607 14.683 0.716111 14.6394 0.68123C14.6097 0.655068 14.5783 0.627164 14.5469 0.603619C14.506 0.572228 14.4641 0.540835 14.4205 0.512057C14.3856 0.485896 14.349 0.46235 14.3132 0.437935C14.2731 0.412647 14.233 0.390845 14.192 0.366429C14.151 0.342884 14.1092 0.319338 14.0673 0.297539C14.0298 0.278354 13.9897 0.262659 13.9513 0.245218C13.9051 0.224289 13.8589 0.204233 13.8127 0.185048C13.7752 0.171096 13.7377 0.158884 13.7002 0.146676C13.6514 0.130107 13.6017 0.115286 13.5528 0.101334C13.5153 0.0899973 13.4752 0.081278 13.4369 0.072557C13.388 0.0612205 13.3392 0.0516258 13.2904 0.0437768C13.2476 0.0350566 13.2066 0.0298242 13.163 0.0237202C13.1168 0.018488 13.0706 0.0123839 13.0226 0.00889581C12.9773 0.00366378 12.9311 0.00366361 12.8849 0.00279164C12.8421 0.00191945 12.8003 -0.000696623 12.7558 0.000175569C12.7061 0.00104754 12.6555 0.00366383 12.6058 0.00627974C12.5674 0.00976805 12.5273 0.0141279 12.4855 0.017616C12.4358 0.0237203 12.3843 0.031569 12.3346 0.0402887C12.2945 0.0463929 12.2561 0.0524971 12.216 0.0612172C12.1663 0.0708096 12.1175 0.0847627 12.0695 0.0978422C12.0294 0.109178 11.9884 0.118771 11.9474 0.130107C11.9021 0.146676 11.8585 0.159755 11.8149 0.177196C11.7695 0.193765 11.7259 0.209462 11.6832 0.229518C11.6448 0.246086 11.6056 0.264398 11.5655 0.283583C11.5193 0.306255 11.4713 0.3298 11.4251 0.355961C11.3911 0.376018 11.3562 0.396074 11.3222 0.417003C11.2751 0.445781 11.228 0.47543 11.1835 0.506821C11.1687 0.518158 11.1522 0.526879 11.1373 0.53647C11.1173 0.550423 11.1007 0.566119 11.0824 0.580071C11.0414 0.611463 11.0022 0.642857 10.9621 0.675994C10.9246 0.707388 10.8862 0.743139 10.8496 0.778893C10.8304 0.795461 10.8129 0.808541 10.7955 0.825982L0.825681 10.7958C0.811728 10.8106 0.800392 10.8237 0.789056 10.8368C0.750686 10.8769 0.711446 10.9179 0.675694 10.9615C0.650406 10.9894 0.624243 11.0199 0.600699 11.0513C0.56669 11.0923 0.535296 11.1359 0.505648 11.1804C0.48036 11.2152 0.458559 11.2501 0.434144 11.285C0.407982 11.326 0.38531 11.3661 0.360022 11.4097C0.342581 11.4524 0.319907 11.4934 0.298108 11.5353C0.278051 11.5736 0.261484 11.6129 0.244043 11.653C0.223114 11.6975 0.204802 11.7437 0.185617 11.7899C0.171665 11.8265 0.159456 11.8658 0.145504 11.9033C0.130679 11.9521 0.115855 11.9992 0.101903 12.0498C0.0896944 12.0881 0.0809732 12.1274 0.0731241 12.1675C0.0617879 12.2146 0.0521964 12.2634 0.0443474 12.3122C0.035627 12.355 0.030395 12.3968 0.0242908 12.4396C0.0181866 12.4858 0.0129545 12.532 0.00946642 12.58C0.00597832 12.6253 0.00423433 12.6715 0.0016182 12.7177C0.000746234 12.7587 -0.000997758 12.8041 0.000746178 12.8477C0.000746178 12.8965 0.00423422 12.9462 0.00685034 12.995C0.0103384 13.0351 0.0129545 13.0753 0.0164426 13.1162C0.0225466 13.166 0.0312675 13.2174 0.0391152 13.2662C0.0469636 13.3063 0.0530665 13.3465 0.0617861 13.3874C0.0731224 13.4345 0.0844582 13.4825 0.0966671 13.5313C0.108003 13.5723 0.119339 13.6142 0.131548 13.656C0.1455 13.6996 0.160327 13.7432 0.176893 13.7877C0.194334 13.8313 0.210901 13.8766 0.230959 13.9203C0.247527 13.9586 0.264967 13.9979 0.283282 14.0354C0.306827 14.0824 0.330372 14.1295 0.357404 14.1766C0.374845 14.2106 0.394901 14.2438 0.415829 14.2787L0.417374 14.2778ZM6.54325 13.0953L12.4573 7.18215L15.3279 11.1428L9.41476 17.056L6.54325 13.0953ZM12.7801 21.7004L18.6932 15.7873L21.6301 19.8353L15.7161 25.7484L12.7801 21.7004ZM19.0821 30.3929L24.9952 24.4798L27.9297 28.5268L22.0183 34.4409L19.0821 30.3929ZM35.4865 44.5625L36.7789 42.5324L39.0532 40.258H41.5019L37.1977 44.5623L35.4865 44.5625ZM45.2088 44.5625L49.513 40.2582H51.9635L47.6592 44.5625H45.2088ZM55.6704 44.5625L59.9746 40.2582H62.4233L58.1191 44.5625H55.6704ZM66.132 44.5625L70.4362 40.2582H72.8867L68.5816 44.5625H66.132ZM76.5927 44.5625L80.8969 40.2582H83.3474L79.0423 44.5625H76.5927ZM87.0543 44.5625L91.3585 40.2582H93.809L89.5048 44.5625H87.0543ZM25.3825 39.0862L31.2957 33.1731L34.1672 37.132L28.2532 43.0451L25.3825 39.0862ZM96.1736 52.6566L93.5478 48.5312L100.892 41.1871L103.516 45.3126L96.1736 52.6566ZM26.1884 53.4764L27.6639 51.1585C27.7738 51.5936 28.0406 51.9895 28.4478 52.2485C28.7487 52.4395 29.0879 52.5319 29.4193 52.5319C30.0184 52.5319 30.6044 52.2354 30.9506 51.6921L31.8819 50.228H90.3345L92.3995 53.4755L26.1884 53.4764Z" fill="white"/>
</svg>
