<svg width="97" height="62" viewBox="0 0 97 62" fill="none" xmlns="http://www.w3.org/2000/svg">
<path d="M91.5267 22.8389C91.5267 23.0575 91.4177 23.2754 91.4177 23.3851V22.9486C91.4177 22.9478 91.5267 22.8389 91.5267 22.8389Z" fill="white"/>
<path d="M86.5025 22.6207C87.3764 22.9483 88.2502 23.0573 89.0144 23.167C89.9972 23.2759 90.7621 23.167 91.3084 22.8394V23.2759C83.3347 63.1415 25.5575 46.54 9.93893 22.6207C16.82 31.4674 29.2712 36.8196 43.6881 34.5256C53.8453 32.8876 64.9862 27.5355 75.6898 16.832C75.6898 17.0507 76.2361 17.4872 77.2189 18.1424C77.7651 18.47 78.4203 18.9074 79.1845 19.3439C79.8397 19.6715 80.4949 20.1088 81.2599 20.4364C82.0248 20.764 82.7889 21.2013 83.5539 21.529C84.6472 21.9655 85.63 22.4021 86.5038 22.6207L86.5025 22.6207Z" fill="white"/>
<path d="M1.638 45.9939C0.655188 45.8849 0 45.12 0 44.2461L2.29403 7.11108C2.40297 6.23722 3.16789 5.58203 4.04173 5.58203C4.9156 5.69098 5.67973 6.4559 5.57078 7.32974L3.27676 44.4648C3.276 45.3387 2.51184 45.9939 1.638 45.9939Z" fill="white"/>
<path d="M3.93164 8.8587C2.94883 8.74975 2.29364 7.98483 2.29364 7.11099V6.89233C2.40259 6.01847 3.1675 5.36328 4.04135 5.36328C4.91521 5.47223 5.67935 6.23714 5.5704 7.11099V7.32965C5.5704 8.20275 4.80548 8.8587 3.93164 8.8587Z" fill="white"/>
<path d="M95.3494 61.5033C94.4755 61.5033 93.8204 60.8481 93.7114 60.0832L87.3766 1.86851C87.2677 0.994647 87.9229 0.120803 88.7967 0.0118553C89.6706 -0.0970924 90.5444 0.558116 90.6534 1.43196L96.9882 59.6466C97.0971 60.5205 96.4419 61.3943 95.5681 61.5033H95.3494Z" fill="white"/>
<path d="M13.3246 17.1597C13.2156 17.1597 13.2156 17.1597 13.1059 17.0508L3.82178 7.43916C3.71283 7.33022 3.71283 7.11156 3.82178 7.00261C3.93072 6.89366 4.14938 6.89366 4.25833 7.00261L13.5425 16.6142C13.6514 16.7232 13.6514 16.9418 13.5425 17.0508C13.4343 17.1597 13.3246 17.1597 13.3246 17.1597Z" fill="white"/>
<path d="M11.5771 18.3613C11.4682 18.3613 11.3585 18.3613 11.3585 18.2524L3.82206 7.33032C3.71312 7.22137 3.71312 7.00271 3.93101 7.00271C4.03996 6.89377 4.25861 6.89377 4.25861 7.11166L11.795 18.0337C11.904 18.1427 11.904 18.3613 11.6861 18.3613H11.5771Z" fill="white"/>
<path d="M10.1572 19.0164C10.0482 19.0164 9.93852 19.0164 9.93852 18.9075L3.71332 7.33025C3.60438 7.22131 3.71333 7.00265 3.82227 7.00265C3.93122 6.8937 4.14987 7.00264 4.14987 7.11159L10.3758 18.6888C10.4848 18.7977 10.3758 19.0164 10.2669 19.0164H10.1572Z" fill="white"/>
<path d="M75.7988 17.1595C75.6899 17.1595 75.6899 17.1595 75.5802 17.0505C75.4712 16.9416 75.4712 16.8319 75.5802 16.614L88.7963 1.4323C88.9052 1.32335 89.1239 1.32335 89.2328 1.4323C89.3418 1.54124 89.3418 1.65095 89.2328 1.86885L76.0175 17.0505C75.9086 17.1595 75.9085 17.1595 75.7988 17.1595Z" fill="white"/>
<path d="M77.328 18.4706H77.219C77.1101 18.3617 77.1101 18.252 77.1101 18.143L88.7963 1.54205C88.9052 1.4331 89.0149 1.43311 89.1239 1.43311C89.2328 1.54205 89.2328 1.65176 89.2328 1.76071L77.5466 18.3617C77.5466 18.4706 77.4377 18.4706 77.328 18.4706Z" fill="white"/>
<path d="M86.5025 23.0572C86.2839 23.0572 86.1749 22.9483 86.2839 22.7296V22.511L88.7957 1.64981C88.7957 1.54086 88.9047 1.43115 89.1233 1.43115C89.2323 1.43115 89.342 1.5401 89.342 1.75876L86.8301 22.9476C86.7204 22.9476 86.6115 23.0565 86.5025 23.0565V23.0572Z" fill="white"/>
<path d="M79.4032 19.5623H79.2942C79.1853 19.4534 79.0756 19.3436 79.1853 19.2347L88.7961 1.54113C88.9051 1.43218 89.0148 1.32247 89.1237 1.43218C89.2327 1.54113 89.3424 1.65084 89.2327 1.75978L79.512 19.3443C79.6217 19.4533 79.5129 19.5623 79.4032 19.5623Z" fill="white"/>
<path d="M81.4784 20.6546C81.3694 20.6546 81.3694 20.6546 81.4784 20.6546C81.1508 20.5449 81.1508 20.4359 81.1508 20.2173L88.796 1.54015C88.905 1.43121 89.0147 1.32149 89.1236 1.4312C89.2326 1.54015 89.3423 1.64986 89.2326 1.75881L81.5873 20.4359C81.697 20.5449 81.5873 20.6546 81.4784 20.6546Z" fill="white"/>
<path d="M83.6627 21.7467C83.4441 21.7467 83.3351 21.528 83.4441 21.4191L88.7961 1.54092C88.7961 1.43198 89.0147 1.32227 89.1237 1.32227C89.2326 1.32227 89.3423 1.54092 89.3423 1.64987L83.9903 21.528C83.8814 21.637 83.7724 21.7459 83.6627 21.7459V21.7467Z" fill="white"/>
<path d="M7.86357 19.8901C7.75462 19.8901 7.64491 19.7811 7.64491 19.6714L3.71375 7.33005C3.71375 7.2211 3.71375 7.00244 3.9324 7.00244C4.04135 7.00244 4.26001 7.00244 4.26001 7.2211L8.19195 19.5632C8.19195 19.6714 8.08223 19.7811 7.86357 19.8901C7.97328 19.8901 7.97328 19.8901 7.86357 19.8901Z" fill="white"/>
<path d="M3.93165 7.54808C3.8227 7.54808 3.71299 7.54808 3.71299 7.43914C3.60404 7.33019 3.71299 7.11153 3.82193 7.11153C3.93088 7.00259 4.14954 7.11153 4.14954 7.22048C4.25848 7.32943 4.14954 7.54808 4.04059 7.54808H3.93165Z" fill="white"/>
<path d="M89.0146 23.385C88.9057 23.385 88.7959 23.276 88.7959 23.1663V1.64981C88.7959 1.54086 88.9049 1.43115 89.0146 1.43115C89.1235 1.43115 89.2333 1.5401 89.2333 1.64981V23.1663C89.3422 23.2752 89.2333 23.385 89.0146 23.385Z" fill="white"/>
<path d="M9.065 19.6716C8.95606 19.6716 8.84635 19.5627 8.84635 19.453L3.71375 7.33025C3.60481 7.2213 3.71375 7.00265 3.8227 7.00265C3.93164 6.8937 4.1503 7.00265 4.1503 7.11159L9.28368 19.2351C9.39262 19.344 9.28366 19.5627 9.065 19.6716Z" fill="white"/>
<path d="M3.93164 8.85901C3.05778 8.85901 2.29364 8.09409 2.29364 7.22101C2.29364 6.34714 3.05856 5.58301 3.93164 5.58301C4.8055 5.58301 5.56964 6.34792 5.56964 7.22101C5.5704 8.20306 4.91519 8.85901 3.93164 8.85901Z" fill="white"/>
<path d="M12.2324 17.815C12.1234 17.815 12.1234 17.815 12.0137 17.706L3.71315 7.33027C3.6042 7.22133 3.6042 7.00267 3.71315 6.89372C3.82209 6.78478 4.04075 6.78478 4.1497 6.89372L12.4503 17.2695C12.5592 17.3784 12.5592 17.5971 12.4503 17.706C12.3413 17.815 12.3413 17.815 12.2324 17.815Z" fill="white"/>
<path d="M3.93164 8.85901C3.05778 8.85901 2.29364 8.09409 2.29364 7.22101C2.29364 6.34714 3.05856 5.58301 3.93164 5.58301C4.8055 5.58301 5.56964 6.34792 5.56964 7.22101C5.5704 8.20306 4.91519 8.85901 3.93164 8.85901Z" fill="white"/>
<path d="M3.93159 7.54811C3.82265 7.54811 3.82265 7.5481 3.71293 7.43916C3.60399 7.33021 3.60399 7.11156 3.71293 7.00261C3.82188 6.89366 3.93159 6.89366 4.04054 7.00261C4.14948 7.11155 4.14948 7.33021 4.04054 7.43916C4.15025 7.43916 4.0413 7.54811 3.93159 7.54811Z" fill="white"/>
<path d="M37.244 35.6182C26.1033 35.6182 15.8367 31.0309 9.61114 22.9483C8.84622 21.9655 8.08209 20.873 7.53575 19.7813C7.4268 19.5627 7.4268 19.3448 7.53575 19.2351C7.6447 19.0164 7.86335 19.0164 8.08201 19.0164C8.19095 19.0164 8.51856 19.0164 8.95587 18.9075C9.28348 18.7985 9.61108 18.6888 10.0484 18.4709C10.4849 18.2523 10.9223 17.9247 11.3588 17.706C11.5775 17.4874 11.9051 17.3784 12.014 17.2695C12.5603 16.8329 12.9968 16.5045 12.9968 16.5045C13.2155 16.2859 13.5431 16.3956 13.7617 16.5045C19.9877 22.8393 36.4797 34.6354 43.7975 33.9802C54.7195 32.2325 65.3139 26.5536 75.1438 16.8322C75.3625 16.6135 75.6901 16.6135 75.9087 16.8322C76.1274 17.0509 76.1274 17.3785 75.9087 17.5971C65.8604 27.5356 54.9383 33.3243 43.7978 35.072C41.6136 35.3997 39.4286 35.6183 37.2442 35.6183L37.244 35.6182ZM8.84659 20.1088C9.28314 20.8737 9.8294 21.6379 10.3756 22.293C16.8195 30.5936 27.6325 35.0719 39.2099 34.4165C30.9088 32.0137 18.7856 23.1668 13.2154 17.5961C12.9967 17.7051 12.7788 17.9237 12.5602 18.0327C12.3415 18.1416 12.1236 18.3603 11.7953 18.579C11.3587 18.9066 10.9214 19.1252 10.3752 19.3439C9.9386 19.5625 9.50129 19.7804 9.17369 19.8901C9.06475 19.9991 8.95579 19.9991 8.84685 20.1088L8.84659 20.1088Z" fill="white"/>
<path d="M91.5267 23.0574C91.4178 23.0574 91.308 22.9484 91.308 22.8387L88.7962 1.64987C88.7962 1.54092 88.9051 1.32227 89.0148 1.32227C89.1238 1.32227 89.3424 1.43121 89.3424 1.54092L91.8543 22.7297C91.8543 22.9476 91.7454 23.0566 91.5267 23.0566V23.0574Z" fill="white"/>
</svg>
