<svg width="87" height="88" viewBox="0 0 87 88" fill="none" xmlns="http://www.w3.org/2000/svg">
<path d="M84.9683 61.5729C79.9604 60.7355 78.4086 56.4187 76.7639 51.8461C74.8274 46.4601 72.6384 40.3775 64.2145 40.063V18.9031C64.2145 18.2884 64.0106 17.7221 63.6689 17.2616C63.8073 17.1287 63.9329 16.98 64.047 16.8198C65.0289 15.4149 64.7977 13.3898 63.5312 12.3041L49.8183 0.560522C48.945 -0.187144 47.7228 -0.187144 46.8495 0.562342L33.1366 12.3041C31.8694 13.3898 31.6382 15.4148 32.6207 16.8197C33.0923 17.4897 33.7653 17.9157 34.5245 18.028V21.4064L5.52363 21.4058V18.9032C5.52363 17.3805 4.2844 16.1413 2.76182 16.1413C1.23924 16.1413 0 17.3806 0 18.9032V69.0484C0 70.571 1.23924 71.8102 2.76182 71.8102C4.2844 71.8102 5.52363 70.571 5.52363 69.0484V26.929H11.738V58.6906H11.5396C10.8386 58.6906 10.2051 59.0978 9.92708 59.7296L8.38745 63.213C8.22359 63.5844 8.25818 64.0086 8.4809 64.3503C8.70726 64.6974 9.09202 64.9044 9.51137 64.9044H26.3927C26.812 64.9044 27.1968 64.6974 27.4231 64.3503C27.6459 64.0086 27.6805 63.5838 27.5166 63.213L25.977 59.7296C25.699 59.0978 25.0654 58.6906 24.3645 58.6906L24.1661 58.6912V26.9296H34.5229V47.6436H32.4517C31.3089 47.6436 30.3804 48.5722 30.3804 49.7149V66.9768C30.3804 68.1196 31.3089 69.0481 32.4517 69.0481H58.6903C58.6903 70.5707 59.9295 71.8099 61.4521 71.8099C62.9747 71.8099 64.2139 70.5707 64.2139 69.0481V49.3501C68.2478 49.9661 69.5356 54.6323 70.782 59.1547C71.1619 60.5323 71.5206 61.8352 71.9557 63.0332C72.8272 65.431 74.8056 67.2381 77.25 67.8681C79.0918 68.3427 81.3482 68.5691 84.5621 68.6037H84.5901C85.2273 68.6037 85.8275 68.3567 86.2821 67.9064C86.7445 67.4488 87 66.8377 87 66.1872V63.957C86.9994 62.7718 86.1449 61.7686 84.9676 61.5719L84.9683 61.5729ZM4.14276 69.049C4.14276 69.81 3.52314 70.4302 2.76152 70.4302C2.00051 70.4302 1.38029 69.8106 1.38029 69.049V18.9037C1.38029 18.1427 1.99991 17.5225 2.76152 17.5225C3.52253 17.5225 4.14276 18.1421 4.14276 18.9037V69.049ZM40.7376 47.6436H35.9045V26.9296H40.7376V47.6436ZM42.1182 58.6917V49.0247H51.7851V58.6917H42.1182ZM51.7851 47.6436H42.1182V26.9296H51.7851V47.6436ZM22.7858 58.6917H13.1189V26.93H22.7858V58.6917ZM58.6908 67.6678H32.4522C32.0705 67.6678 31.7616 67.3589 31.7616 66.9772V49.7153C31.7616 49.3336 32.0705 49.0247 32.4522 49.0247H40.7378V58.6916H40.5394C39.8385 58.6916 39.2049 59.0988 38.9269 59.7305L37.3873 63.214C37.2234 63.5854 37.258 64.0096 37.4808 64.3513C37.7071 64.6984 38.0919 64.9053 38.5112 64.9053H55.3925C55.8119 64.9053 56.1966 64.6984 56.423 64.3513C56.6457 64.0096 56.6803 63.5848 56.5165 63.214L54.9768 59.7305C54.6989 59.0988 54.0653 58.6916 53.3643 58.6916H53.1659V49.0247H58.6897L58.6908 67.6678ZM58.6908 47.6436H53.167V26.9296H58.6908V47.6436ZM58.6908 18.9022V21.4049H35.9059V17.8644C36.1838 17.7521 36.4478 17.5931 36.6881 17.388L48.334 7.41409L59.5023 16.948C59.0022 17.4487 58.6915 18.1393 58.6915 18.9021L58.6908 18.9022ZM62.8333 69.0474C62.8333 69.8084 62.2137 70.4286 61.4521 70.4286C60.6911 70.4286 60.0709 69.809 60.0709 69.0474V18.9022C60.0709 18.1412 60.6905 17.5209 61.4521 17.5209C62.2131 17.5209 62.8333 18.1406 62.8333 18.9022V69.0474Z" fill="white"/>
<path d="M82.8569 80.0962C82.8569 83.9098 77.7562 87.0011 71.4635 87.0011C65.1715 87.0011 60.0707 83.9098 60.0707 80.0962C60.0707 76.2832 65.1715 73.1919 71.4635 73.1919C77.7562 73.1919 82.8569 76.2832 82.8569 80.0962Z" fill="white"/>
<path d="M51.4403 15.7961C51.4403 17.5124 50.0493 18.9033 48.3331 18.9033C46.6174 18.9033 45.2259 17.5124 45.2259 15.7961C45.2259 14.0799 46.6174 12.689 48.3331 12.689C50.0493 12.689 51.4403 14.0799 51.4403 15.7961Z" fill="white"/>
<path d="M51.0954 75.0195C51.0954 77.0617 48.4682 78.7172 45.2264 78.7172C41.9851 78.7172 39.3574 77.0617 39.3574 75.0195C39.3574 72.9773 41.9851 71.3218 45.2264 71.3218C48.4682 71.3218 51.0954 72.9773 51.0954 75.0195Z" fill="white"/>
<path d="M24.8568 72.8471C24.8568 74.9444 21.7655 76.6448 17.9525 76.6448C14.1389 76.6448 11.0475 74.9444 11.0475 72.8471C11.0475 70.7497 14.1389 69.0493 17.9525 69.0493C21.7655 69.0493 24.8568 70.7497 24.8568 72.8471Z" fill="white"/>
</svg>
