<svg width="40" height="40" viewBox="0 0 40 40" fill="none" xmlns="http://www.w3.org/2000/svg">
<circle cx="20" cy="20" r="20" fill="white"/>
<path d="M19.9998 15.6923C19.1479 15.6923 18.315 15.945 17.6066 16.4183C16.8982 16.8916 16.3461 17.5644 16.02 18.3515C15.694 19.1387 15.6087 20.0048 15.7749 20.8404C15.9411 21.676 16.3514 22.4436 16.9538 23.046C17.5563 23.6484 18.3238 24.0587 19.1594 24.2249C19.9951 24.3911 20.8612 24.3058 21.6483 23.9798C22.4354 23.6538 23.1082 23.1016 23.5816 22.3932C24.0549 21.6848 24.3075 20.852 24.3075 20C24.3063 18.8579 23.8521 17.7629 23.0445 16.9553C22.2369 16.1477 21.1419 15.6935 19.9998 15.6923ZM19.9998 22.8718C19.4319 22.8718 18.8766 22.7034 18.4044 22.3878C17.9321 22.0723 17.564 21.6237 17.3466 21.099C17.1293 20.5742 17.0724 19.9968 17.1832 19.4397C17.294 18.8827 17.5675 18.371 17.9692 17.9693C18.3708 17.5677 18.8825 17.2942 19.4396 17.1834C19.9967 17.0726 20.5741 17.1295 21.0988 17.3468C21.6236 17.5642 22.0721 17.9323 22.3876 18.4045C22.7032 18.8768 22.8716 19.432 22.8716 20C22.8716 20.7617 22.5691 21.4921 22.0305 22.0307C21.4919 22.5692 20.7615 22.8718 19.9998 22.8718ZM24.3075 10.6667H15.6921C14.3597 10.6681 13.0822 11.198 12.1401 12.1402C11.1979 13.0824 10.6679 14.3599 10.6665 15.6923V24.3077C10.6679 25.6401 11.1979 26.9176 12.1401 27.8598C13.0822 28.802 14.3597 29.3319 15.6921 29.3333H24.3075C25.64 29.3319 26.9174 28.802 27.8596 27.8598C28.8018 26.9176 29.3317 25.6401 29.3332 24.3077V15.6923C29.3317 14.3599 28.8018 13.0824 27.8596 12.1402C26.9174 11.198 25.64 10.6681 24.3075 10.6667ZM27.8973 24.3077C27.8973 25.2598 27.5191 26.1728 26.8459 26.846C26.1727 27.5192 25.2596 27.8974 24.3075 27.8974H15.6921C14.7401 27.8974 13.827 27.5192 13.1538 26.846C12.4806 26.1728 12.1024 25.2598 12.1024 24.3077V15.6923C12.1024 14.7403 12.4806 13.8272 13.1538 13.154C13.827 12.4808 14.7401 12.1026 15.6921 12.1026H24.3075C25.2596 12.1026 26.1727 12.4808 26.8459 13.154C27.5191 13.8272 27.8973 14.7403 27.8973 15.6923V24.3077ZM25.7434 15.3333C25.7434 15.5463 25.6803 15.7545 25.5619 15.9316C25.4436 16.1087 25.2754 16.2468 25.0786 16.3283C24.8818 16.4098 24.6653 16.4311 24.4564 16.3896C24.2475 16.348 24.0556 16.2454 23.905 16.0948C23.7544 15.9442 23.6518 15.7523 23.6103 15.5434C23.5687 15.3345 23.59 15.118 23.6716 14.9212C23.7531 14.7244 23.8911 14.5562 24.0682 14.4379C24.2453 14.3196 24.4535 14.2564 24.6665 14.2564C24.9521 14.2564 25.226 14.3699 25.428 14.5718C25.63 14.7738 25.7434 15.0477 25.7434 15.3333Z" fill="#1C8161"/>
</svg>
