<svg width="20" height="25" viewBox="0 0 20 25" fill="none" xmlns="http://www.w3.org/2000/svg">
<path d="M10 4.28571L10.6057 3.68C10.445 3.51948 10.2271 3.42933 10 3.42933C9.77286 3.42933 9.555 3.51948 9.39429 3.68L10 4.28571ZM10 13.4286L9.39429 14.0343C9.555 14.1948 9.77286 14.285 10 14.285C10.2271 14.285 10.445 14.1948 10.6057 14.0343L10 13.4286ZM7.10857 5.96571C6.95717 6.1282 6.87474 6.34311 6.87866 6.56517C6.88258 6.78723 6.97253 6.9991 7.12958 7.15614C7.28662 7.31318 7.49849 7.40314 7.72055 7.40706C7.94261 7.41097 8.15751 7.32855 8.32 7.17714L7.10857 5.96571ZM11.68 7.17714C11.7585 7.26136 11.8531 7.3289 11.9582 7.37575C12.0634 7.4226 12.1769 7.44779 12.292 7.44982C12.4071 7.45185 12.5214 7.43068 12.6281 7.38757C12.7348 7.34446 12.8318 7.28029 12.9132 7.1989C12.9946 7.11751 13.0587 7.02056 13.1019 6.91383C13.145 6.8071 13.1661 6.69278 13.1641 6.57769C13.1621 6.4626 13.1369 6.3491 13.09 6.24396C13.0432 6.13881 12.9756 6.04418 12.8914 5.96571L11.68 7.17714ZM8.32 10.5371C8.24153 10.4529 8.1469 10.3854 8.04176 10.3385C7.93662 10.2917 7.82311 10.2665 7.70803 10.2645C7.59294 10.2624 7.47862 10.2836 7.37189 10.3267C7.26516 10.3698 7.16821 10.434 7.08681 10.5154C7.00542 10.5968 6.94126 10.6937 6.89815 10.8005C6.85504 10.9072 6.83386 11.0215 6.8359 11.1366C6.83793 11.2517 6.86312 11.3652 6.90996 11.4703C6.95681 11.5755 7.02436 11.6701 7.10857 11.7486L8.32 10.5371ZM12.8914 11.7486C12.9756 11.6701 13.0432 11.5755 13.09 11.4703C13.1369 11.3652 13.1621 11.2517 13.1641 11.1366C13.1661 11.0215 13.145 10.9072 13.1019 10.8005C13.0587 10.6937 12.9946 10.5968 12.9132 10.5154C12.8318 10.434 12.7348 10.3698 12.6281 10.3267C12.5214 10.2836 12.4071 10.2624 12.292 10.2645C12.1769 10.2665 12.0634 10.2917 11.9582 10.3385C11.8531 10.3854 11.7585 10.4529 11.68 10.5371L12.8914 11.7486ZM0 10V14.5714H1.71429V10H0ZM20 14.5714V10H18.2857V14.5714H20ZM9.14286 4.28571V13.4286H10.8571V4.28571H9.14286ZM9.39429 3.68L7.10857 5.96571L8.32 7.17714L10.6057 4.89143L9.39429 3.68ZM9.39429 4.89143L11.68 7.17714L12.8914 5.96571L10.6057 3.68L9.39429 4.89143ZM10.6057 12.8229L8.32 10.5371L7.10857 11.7486L9.39429 14.0343L10.6057 12.8229ZM10.6057 14.0343L12.8914 11.7486L11.68 10.5371L9.39429 12.8229L10.6057 14.0343ZM20 10C20 7.34783 18.9464 4.8043 17.0711 2.92893C15.1957 1.05357 12.6522 0 10 0V1.71429C12.1975 1.71429 14.305 2.58724 15.8589 4.14112C17.4128 5.69499 18.2857 7.80249 18.2857 10H20ZM10 24.5714C11.3132 24.5714 12.6136 24.3128 13.8268 23.8102C15.0401 23.3077 16.1425 22.5711 17.0711 21.6425C17.9997 20.7139 18.7362 19.6115 19.2388 18.3983C19.7413 17.185 20 15.8846 20 14.5714H18.2857C18.2857 16.7689 17.4128 18.8764 15.8589 20.4303C14.305 21.9842 12.1975 22.8571 10 22.8571V24.5714ZM0 14.5714C0 17.2236 1.05357 19.7671 2.92893 21.6425C4.8043 23.5179 7.34784 24.5714 10 24.5714V22.8571C7.80249 22.8571 5.69499 21.9842 4.14112 20.4303C2.58724 18.8764 1.71429 16.7689 1.71429 14.5714H0ZM1.71429 10C1.71429 7.80249 2.58724 5.69499 4.14112 4.14112C5.69499 2.58724 7.80249 1.71429 10 1.71429V0C7.34784 0 4.8043 1.05357 2.92893 2.92893C1.05357 4.8043 0 7.34783 0 10H1.71429Z" fill="white"/>
</svg>
