<svg width="40" height="40" viewBox="0 0 40 40" fill="none" xmlns="http://www.w3.org/2000/svg">
<circle cx="20" cy="20" r="20" fill="white"/>
<path d="M28.9394 15.415C28.8331 15.0123 28.6251 14.6451 28.3362 14.3502C28.0472 14.0553 27.6874 13.8431 27.2928 13.7347C25.8395 13.3333 19.9998 13.3333 19.9998 13.3333C19.9998 13.3333 14.1602 13.3333 12.7069 13.7347C12.3123 13.8431 11.9525 14.0553 11.6635 14.3502C11.3745 14.6451 11.1665 15.0123 11.0603 15.415C10.789 16.9274 10.6573 18.4625 10.667 20C10.6573 21.5375 10.789 23.0726 11.0603 24.585C11.1665 24.9877 11.3745 25.3549 11.6635 25.6498C11.9525 25.9446 12.3123 26.1569 12.7069 26.2653C14.1602 26.6667 19.9998 26.6667 19.9998 26.6667C19.9998 26.6667 25.8395 26.6667 27.2928 26.2653C27.6874 26.1569 28.0472 25.9446 28.3362 25.6498C28.6251 25.3549 28.8331 24.9877 28.9394 24.585C29.2107 23.0726 29.3424 21.5375 29.3327 20C29.3424 18.4625 29.2107 16.9274 28.9394 15.415ZM18.1333 22.8571V17.1429L22.9797 20L18.1333 22.8571Z" fill="#1C8161"/>
</svg>
