<svg width="47" height="29" viewBox="0 0 47 29" fill="none" xmlns="http://www.w3.org/2000/svg">
<path d="M29.0112 10.5209C27.3948 8.86484 25.4404 7.13225 23.3146 5.81602C21.1816 4.49535 18.9777 3.65308 16.838 3.62678C14.4637 3.5976 12.1152 4.57361 9.93405 6.07872C7.76028 7.57378 5.85768 9.52249 4.41101 11.2408C3.70041 12.0688 3.30377 13.1204 3.29051 14.2117C3.27726 15.3029 3.64823 16.3642 4.3385 17.2097C5.74673 18.9631 7.59954 20.9551 9.73847 22.5075C11.8846 24.0614 14.2093 25.0949 16.5835 25.124C18.7247 25.1518 20.9508 24.364 23.1161 23.0947C25.2727 21.8311 27.2706 20.1471 28.926 18.5312C30.3909 17.1013 32.7523 17.1173 34.1944 18.5801C36.6308 21.0527 39.7523 23.6293 42.9598 24.8169C42.9658 24.708 42.9366 24.6 42.8766 24.5089C41.9024 22.8851 41.008 21.2147 40.1967 19.5038C39.8116 18.6866 39.4764 17.847 39.1928 16.9894C38.9443 16.2132 38.7542 15.3913 38.7632 14.6414C38.7721 13.8885 38.9817 13.0716 39.2486 12.3017C39.5532 11.4509 39.9088 10.6192 40.3135 9.81128C41.1654 8.11892 42.0993 6.4691 43.1118 4.86767C43.1735 4.7789 43.2052 4.67277 43.2023 4.56471C39.9646 5.67313 36.7782 8.18234 34.2822 10.5987C33.5717 11.2846 32.6187 11.6614 31.6311 11.6468C30.6435 11.6322 29.7016 11.2274 29.0112 10.5209ZM16.876 0.556177C19.7743 0.591796 22.5308 1.71886 24.9312 3.20498C27.3416 4.69847 29.4921 6.61446 31.2115 8.3789C31.3346 8.50273 31.5013 8.57342 31.6758 8.57584C31.8504 8.57825 32.0189 8.5122 32.1452 8.39182C34.7497 5.86967 38.3432 2.97163 42.2438 1.64548C43.7092 1.14802 45.088 1.72532 45.7927 2.86047C46.4504 3.9241 46.4438 5.32996 45.7161 6.4953C44.829 7.9164 43.8373 9.60265 43.0701 11.1671C42.6858 11.9486 42.3688 12.6759 42.1498 13.3074C41.9234 13.9606 41.8369 14.4142 41.8338 14.6776C41.8321 14.9426 41.9063 15.3967 42.1171 16.0552C42.3209 16.6919 42.6192 17.4253 42.9833 18.2146C43.7145 19.796 44.6658 21.5033 45.5188 22.9458C46.2186 24.1286 46.1917 25.5343 45.5074 26.5828C44.7773 27.7018 43.3852 28.245 41.932 27.7117C38.067 26.293 34.5507 23.3149 32.0055 20.7367C31.7566 20.4817 31.331 20.4764 31.0732 20.7281C29.3123 22.4469 27.1153 24.3109 24.6701 25.7447C22.2307 27.1728 19.4482 28.2318 16.547 28.1961C13.3041 28.1563 10.3699 26.7562 7.93661 24.9932C5.49332 23.2227 3.44485 21.0039 1.94248 19.1307C0.806966 17.7297 0.197357 15.9758 0.219348 14.1729C0.241341 12.3701 0.893549 10.632 2.06288 9.2601C3.60651 7.42427 5.70863 5.25793 8.19193 3.54659C10.6679 1.84239 13.6331 0.516322 16.876 0.556177ZM9.8895 9.94271C9.50097 10.322 9.27906 10.8401 9.2726 11.3831C9.26613 11.9261 9.47564 12.4495 9.85503 12.8382C10.2344 13.2268 10.7526 13.4489 11.2956 13.4556C11.8386 13.4623 12.3619 13.253 12.7505 12.8737C13.139 12.4945 13.3609 11.9764 13.3674 11.4334C13.3738 10.8904 13.1643 10.367 12.7849 9.97829C12.4055 9.58961 11.8874 9.36751 11.3444 9.36083C10.8014 9.35416 10.278 9.56347 9.8895 9.94271Z" fill="#1C8161"/>
</svg>
