<svg width="47" height="29" viewBox="0 0 47 29" fill="none" xmlns="http://www.w3.org/2000/svg">
<path d="M17.6023 10.5209C19.2188 8.86484 21.1731 7.13225 23.2989 5.81602C25.4319 4.49535 27.6358 3.65308 29.7755 3.62678C32.1498 3.5976 34.4984 4.57361 36.6795 6.07872C38.8532 7.57378 40.7559 9.52249 42.2025 11.2408C42.9131 12.0688 43.3098 13.1204 43.323 14.2117C43.3363 15.3029 42.9653 16.3642 42.275 17.2097C40.8668 18.9631 39.014 20.9551 36.8751 22.5075C34.7289 24.0614 32.4042 25.0949 30.03 25.124C27.8888 25.1518 25.6627 24.364 23.4974 23.0947C21.3409 21.8311 19.3429 20.1471 17.6876 18.5312C16.2226 17.1013 13.8612 17.1173 12.4191 18.5801C9.98273 21.0527 6.86127 23.6293 3.65376 24.8169C3.6477 24.708 3.67688 24.6 3.73697 24.5089C4.71113 22.8851 5.60549 21.2147 6.41687 19.5038C6.80191 18.6866 7.13715 17.847 7.42076 16.9894C7.66925 16.2132 7.85928 15.3913 7.85035 14.6414C7.84139 13.8885 7.63185 13.0716 7.36495 12.3017C7.06034 11.4509 6.70472 10.6192 6.30003 9.81128C5.44808 8.11892 4.5142 6.4691 3.5017 4.86767C3.44006 4.7789 3.40836 4.67277 3.41122 4.56471C6.64895 5.67313 9.83531 8.18234 12.3313 10.5987C13.0418 11.2846 13.9949 11.6614 14.9825 11.6468C15.9701 11.6322 16.9119 11.2274 17.6023 10.5209ZM29.7375 0.556176C26.8392 0.591796 24.0827 1.71886 21.6824 3.20498C19.272 4.69847 17.1214 6.61446 15.402 8.3789C15.2789 8.50273 15.1123 8.57342 14.9377 8.57584C14.7632 8.57825 14.5947 8.5122 14.4683 8.39182C11.8638 5.86967 8.27032 2.97163 4.36974 1.64548C2.90431 1.14802 1.52551 1.72532 0.820854 2.86047C0.163125 3.9241 0.169727 5.32996 0.897429 6.4953C1.78455 7.9164 2.77619 9.60265 3.54339 11.1671C3.92771 11.9486 4.24477 12.6759 4.46369 13.3074C4.6901 13.9606 4.77659 14.4142 4.77973 14.6776C4.78143 14.9426 4.7072 15.3967 4.4964 16.0552C4.29258 16.6919 3.99436 17.4253 3.63019 18.2146C2.89899 19.796 1.94775 21.5033 1.09472 22.9458C0.394971 24.1286 0.42184 25.5343 1.10616 26.5828C1.83621 27.7018 3.22834 28.245 4.6815 27.7117C8.54651 26.293 12.0628 23.3149 14.608 20.7367C14.8569 20.4817 15.2825 20.4764 15.5404 20.7281C17.3012 22.4469 19.4982 24.3109 21.9435 25.7447C24.3828 27.1728 27.1653 28.2318 30.0666 28.1961C33.3095 28.1563 36.2437 26.7562 38.6769 24.9932C41.1202 23.2227 43.1687 21.0039 44.671 19.1307C45.8066 17.7297 46.4162 15.9758 46.3942 14.1729C46.3722 12.3701 45.72 10.632 44.5506 9.26011C43.007 7.42427 40.9049 5.25793 38.4216 3.54659C35.9456 1.84239 32.9804 0.516323 29.7375 0.556176ZM36.724 9.94271C37.1126 10.322 37.3345 10.8401 37.3409 11.3831C37.3474 11.9261 37.1379 12.4495 36.7585 12.8382C36.3791 13.2268 35.8609 13.4489 35.3179 13.4556C34.7749 13.4623 34.2516 13.253 33.8631 12.8737C33.4745 12.4945 33.2526 11.9764 33.2462 11.4334C33.2397 10.8904 33.4492 10.367 33.8286 9.97829C34.208 9.58961 34.7262 9.36751 35.2692 9.36083C35.8122 9.35416 36.3355 9.56347 36.724 9.94271Z" fill="#1C8161"/>
</svg>
